<svg xmlns="http://www.w3.org/2000/svg" viewBox="0 0 512 356.87"><defs><style>.cls-1{fill:#fff;}</style></defs><title>youtube</title><g id="레이어_2" data-name="레이어 2"><g id="Capa_1" data-name="Capa 1"><path class="cls-1" d="M503.15,57.41c-6.27-27.23-28.54-47.32-55.35-50.31C384.31,0,320,0,256.08,0S127.83,0,64.34,7.09C37.55,10.09,15.29,30.18,9,57.41c-8.92,38.78-9,81.11-9,121s0,82.25,8.92,121c6.26,27.22,28.52,47.31,55.33,50.31C127.74,356.86,192,356.9,256,356.86s128.24,0,191.72-7.09c26.8-3,49.07-23.09,55.34-50.31,8.93-38.78,9-81.1,9-121S512.07,96.18,503.15,57.41ZM189.93,257.9V88.58L352.7,173.51Z"/></g></g></svg>